<svg xmlns="http://www.w3.org/2000/svg" viewBox="0 0 120 120" fill="none" role="img" aria-hidden="true">
  <defs>
    <filter id="glow" x="-40%" y="-40%" width="180%" height="180%">
      <feGaussianBlur stdDeviation="2.8" result="blur"/>
      <feColorMatrix in="blur" type="matrix" values="0 0 0 0 0.88  0 0 0 0 1  0 0 0 0 0.95  0 0 0 .62 0" result="soft"/>
      <feMerge><feMergeNode in="soft"/><feMergeNode in="SourceGraphic"/></feMerge>
    </filter>
    <filter id="accentGlow" x="-50%" y="-50%" width="200%" height="200%">
      <feGaussianBlur stdDeviation="3" result="blur"/>
      <feColorMatrix in="blur" type="matrix" values="0 0 0 0 0.08  0 0 0 0 0.88  0 0 0 0 0.45  0 0 0 .75 0" result="soft"/>
      <feMerge><feMergeNode in="soft"/><feMergeNode in="SourceGraphic"/></feMerge>
    </filter>
  </defs>
  <g stroke="#eef5f2" stroke-width="4.6" stroke-linecap="round" stroke-linejoin="round" filter="url(#glow)">
    <path d="M21.5 58.5c7.8-20.8 27.9-35.6 51.4-35.6 9.5 0 18.5 2.4 26.3 6.8" opacity=".65"/>
    <path d="M98.6 61.6c-7.9 20.6-27.8 35.2-51.1 35.2-9.1 0-17.7-2.2-25.3-6.2" opacity=".65"/>
    <path d="M20.5 58.8 38 41.5h17.2l10.5 10.2c4.1 4 10.6 4 14.7 0l4.9-4.8"/>
    <path d="M99.5 59 82.2 41.7H67.1L51.3 57.1c-3.2 3.2-3.2 8.3 0 11.4 3.1 3.1 8.2 3.2 11.4.1l7.1-6.9 23 23"/>
    <path d="M38 76.3 48.4 86.7c3.3 3.3 8.5 3.3 11.8 0l2.5-2.5 3.5 3.5c3.1 3.1 8.2 3.1 11.4 0l8.4-8.4"/>
    <path d="M31.5 47.5 19.8 35.8M88.5 47.5l11.7-11.7"/>
  </g>
</svg>