<svg xmlns="http://www.w3.org/2000/svg" viewBox="0 0 120 120" fill="none" role="img" aria-hidden="true">
  <defs>
    <filter id="glow" x="-40%" y="-40%" width="180%" height="180%">
      <feGaussianBlur stdDeviation="2.8" result="blur"/>
      <feColorMatrix in="blur" type="matrix" values="0 0 0 0 0.88  0 0 0 0 1  0 0 0 0 0.95  0 0 0 .62 0" result="soft"/>
      <feMerge><feMergeNode in="soft"/><feMergeNode in="SourceGraphic"/></feMerge>
    </filter>
    <filter id="accentGlow" x="-50%" y="-50%" width="200%" height="200%">
      <feGaussianBlur stdDeviation="3" result="blur"/>
      <feColorMatrix in="blur" type="matrix" values="0 0 0 0 0.08  0 0 0 0 0.88  0 0 0 0 0.45  0 0 0 .75 0" result="soft"/>
      <feMerge><feMergeNode in="soft"/><feMergeNode in="SourceGraphic"/></feMerge>
    </filter>
  </defs>
  <g stroke="#eef5f2" stroke-width="4.6" stroke-linecap="round" stroke-linejoin="round" filter="url(#glow)">
    <path d="M17.7 30.4 34.4 29l9.2 7.3 14.2 1.5 7.2 8.7 10.5 2.8 3.4 11.1 11.4 7.1-5 9.8 3.3 9.6-10.9 1.9-7.4 9.8-11.9 6.2-17.5-6.5-9.5-8.4-7.4-1.1-2.7-11.1-8.6-7.2 2.8-7.1-9.7-6.1 9.2-5.3-6.9-9.4 8.6-12.2Z"/>
    <path d="M29 35.5c9.5 13.8 16.4 26.3 22 39.1 3.1 7.1 6.2 14.3 11.6 22" opacity=".68"/>
  </g>
</svg>